<?xml version="1.0" encoding="us-ascii" standalone="no"?><svg xmlns="http://www.w3.org/2000/svg" xmlns:xlink="http://www.w3.org/1999/xlink" contentStyleType="text/css" height="1178px" preserveAspectRatio="none" style="width:415px;height:1178px;background:#DDDDDD;" version="1.1" viewBox="0 0 415 1178" width="415px" zoomAndPan="magnify"><defs/><g><rect fill="#DDDDDD" height="1178" style="stroke:none;stroke-width:1.0;" width="415" x="0" y="0"/><rect fill="#FFFFFF" height="989.2026" style="stroke:#454645;stroke-width:1.0;" width="10" x="319.5" y="72.5532"/><rect fill="none" height="979.1924" rx="3.5" ry="3.5" style="stroke:#454645;stroke-width:1.0;" width="398" x="10" y="144.4854"/><rect fill="none" height="83.1553" rx="3.5" ry="3.5" style="stroke:#454645;stroke-width:1.0;" width="358" x="30" y="282.2905"/><rect fill="none" height="362.1353" rx="3.5" ry="3.5" style="stroke:#454645;stroke-width:1.0;" width="378" x="20" y="643.6885"/><rect fill="none" height="296.9121" rx="3.5" ry="3.5" style="stroke:#454645;stroke-width:1.0;" width="358" x="30" y="701.9116"/><line style="stroke:#454645;stroke-width:0.5;stroke-dasharray:5.0,5.0;" x1="59" x2="59" y1="38.6211" y2="1140.6777"/><line style="stroke:#454645;stroke-width:0.5;stroke-dasharray:5.0,5.0;" x1="324" x2="324" y1="38.6211" y2="1140.6777"/><rect fill="#FF6F61" height="32.6211" rx="3.5" ry="3.5" style="stroke:#454645;stroke-width:1.5;" width="39" x="40" y="5"/><text fill="#FFFFFF" font-family="sans-serif" font-size="14" lengthAdjust="spacing" textLength="25" x="47" y="27.1074">App</text><rect fill="#FF6F61" height="32.6211" rx="3.5" ry="3.5" style="stroke:#454645;stroke-width:1.5;" width="39" x="40" y="1139.6777"/><text fill="#FFFFFF" font-family="sans-serif" font-size="14" lengthAdjust="spacing" textLength="25" x="47" y="1161.7852">App</text><rect fill="#FF6F61" height="32.6211" rx="3.5" ry="3.5" style="stroke:#454645;stroke-width:1.5;" width="107" x="271" y="5"/><text fill="#FFFFFF" font-family="sans-serif" font-size="14" lengthAdjust="spacing" textLength="93" x="278" y="27.1074">Microcontroller</text><rect fill="#FF6F61" height="32.6211" rx="3.5" ry="3.5" style="stroke:#454645;stroke-width:1.5;" width="107" x="271" y="1139.6777"/><text fill="#FFFFFF" font-family="sans-serif" font-size="14" lengthAdjust="spacing" textLength="93" x="278" y="1161.7852">Microcontroller</text><rect fill="#FFFFFF" height="989.2026" style="stroke:#454645;stroke-width:1.0;" width="10" x="319.5" y="72.5532"/><polygon fill="#454645" points="307.5,68.5532,317.5,72.5532,307.5,76.5532,311.5,72.5532" style="stroke:#454645;stroke-width:1.0;"/><line style="stroke:#454645;stroke-width:1.0;" x1="59.5" x2="313.5" y1="72.5532" y2="72.5532"/><text fill="#000000" font-family="sans-serif" font-size="13" lengthAdjust="spacing" textLength="79" x="107.5" y="67.2905">Start transfer:</text><text fill="#000000" font-family="monospace" font-size="13" lengthAdjust="spacing" textLength="56" x="190.5" y="66.6494">uint8_t</text><text fill="#000000" font-family="sans-serif" font-size="13" lengthAdjust="spacing" textLength="21" x="250.5" y="67.2905">255</text><polygon fill="#454645" points="70.5,125.4854,60.5,129.4854,70.5,133.4854,66.5,129.4854" style="stroke:#454645;stroke-width:1.0;"/><line style="stroke:#454645;stroke-width:1.0;stroke-dasharray:2.0,2.0;" x1="64.5" x2="318.5" y1="129.4854" y2="129.4854"/><text fill="#000000" font-family="sans-serif" font-size="13" lengthAdjust="spacing" textLength="125" x="91.5" y="124.2227">Confirm start transfer:</text><text fill="#000000" font-family="monospace" font-size="13" lengthAdjust="spacing" textLength="56" x="220.5" y="123.5815">uint8_t</text><text fill="#000000" font-family="sans-serif" font-size="13" lengthAdjust="spacing" textLength="7" x="280.5" y="124.2227">0</text><path d="M13.5,144.4854 L71,144.4854 L71,153.7764 L61,163.7764 L10,163.7764 L10,147.9854 A3.5,3.5 0 0 1 13.5,144.4854 " fill="#EEEEEE" style="stroke:#454645;stroke-width:1.5;"/><rect fill="none" height="979.1924" rx="3.5" ry="3.5" style="stroke:#454645;stroke-width:1.0;" width="398" x="10" y="144.4854"/><text fill="#454645" font-family="sans-serif" font-size="13" font-weight="bold" lengthAdjust="spacing" textLength="16" x="25" y="159.5137">alt</text><text fill="#454645" font-family="sans-serif" font-size="11" font-weight="bold" lengthAdjust="spacing" textLength="142" x="86" y="158.3555">[Confirm start status is 0]</text><path d="M25,172.2764 L25,209.2764 A3.5,3.5 0 0 0 28.5,212.7764 L354.5,212.7764 A3.5,3.5 0 0 0 358,209.2764 L358,178.7764 L348,168.7764 L28.5,168.7764 A3.5,3.5 0 0 0 25,172.2764 " fill="#90EE90" style="stroke:#454645;stroke-width:1.0;"/><path d="M348,168.7764 L348,177.0264 A1.75,1.75 0 0 0 349.75,178.7764 L358,178.7764 L348,168.7764 " fill="#90EE90" style="stroke:#454645;stroke-width:1.0;"/><text fill="#454645" font-family="sans-serif" font-size="13" lengthAdjust="spacing" textLength="195" x="87.5" y="187.8047">Communication with base module</text><text fill="#454645" font-family="sans-serif" font-size="13" lengthAdjust="spacing" textLength="131" x="87.5" y="205.0957">(keyboard and display)</text><polygon fill="#454645" points="70.5,238.2905,60.5,242.2905,70.5,246.2905,66.5,242.2905" style="stroke:#454645;stroke-width:1.0;"/><line style="stroke:#454645;stroke-width:1.0;stroke-dasharray:2.0,2.0;" x1="64.5" x2="318.5" y1="242.2905" y2="242.2905"/><text fill="#000000" font-family="sans-serif" font-size="13" lengthAdjust="spacing" textLength="146" x="82.5" y="237.0278">Keyboard buttons status:</text><text fill="#000000" font-family="monospace" font-size="13" lengthAdjust="spacing" textLength="64" x="232.5" y="236.3867">uint16_t</text><path d="M33.5,282.2905 L103,282.2905 L103,291.5815 L93,301.5815 L30,301.5815 L30,285.7905 A3.5,3.5 0 0 1 33.5,282.2905 " fill="#EEEEEE" style="stroke:#454645;stroke-width:1.5;"/><rect fill="none" height="83.1553" rx="3.5" ry="3.5" style="stroke:#454645;stroke-width:1.0;" width="358" x="30" y="282.2905"/><text fill="#454645" font-family="sans-serif" font-size="13" font-weight="bold" lengthAdjust="spacing" textLength="28" x="45" y="297.3188">loop</text><text fill="#454645" font-family="sans-serif" font-size="11" font-weight="bold" lengthAdjust="spacing" textLength="203" x="118" y="296.1606">[new character index [0 - 8] (or less)]</text><polygon fill="#454645" points="307.5,321.5137,317.5,325.5137,307.5,329.5137,311.5,325.5137" style="stroke:#454645;stroke-width:1.0;"/><line style="stroke:#454645;stroke-width:1.0;" x1="59.5" x2="313.5" y1="325.5137" y2="325.5137"/><text fill="#000000" font-family="sans-serif" font-size="13" lengthAdjust="spacing" textLength="122" x="98.5" y="320.251">New character index:</text><text fill="#000000" font-family="monospace" font-size="13" lengthAdjust="spacing" textLength="56" x="224.5" y="319.6099">uint8_t</text><polygon fill="#454645" points="307.5,353.4458,317.5,357.4458,307.5,361.4458,311.5,357.4458" style="stroke:#454645;stroke-width:1.0;"/><line style="stroke:#454645;stroke-width:1.0;" x1="59.5" x2="313.5" y1="357.4458" y2="357.4458"/><text fill="#000000" font-family="sans-serif" font-size="13" lengthAdjust="spacing" textLength="87" x="104" y="352.1831">New character:</text><text fill="#000000" font-family="monospace" font-size="13" lengthAdjust="spacing" textLength="80" x="195" y="351.542">uint8_t[5]</text><polygon fill="#454645" points="307.5,392.3779,317.5,396.3779,307.5,400.3779,311.5,396.3779" style="stroke:#454645;stroke-width:1.0;"/><line style="stroke:#454645;stroke-width:1.0;" x1="59.5" x2="313.5" y1="396.3779" y2="396.3779"/><text fill="#000000" font-family="sans-serif" font-size="13" lengthAdjust="spacing" textLength="151" x="71.5" y="391.1152">End new character scope:</text><text fill="#000000" font-family="monospace" font-size="13" lengthAdjust="spacing" textLength="56" x="226.5" y="390.4741">uint8_t</text><text fill="#000000" font-family="sans-serif" font-size="13" lengthAdjust="spacing" textLength="21" x="286.5" y="391.1152">255</text><polygon fill="#454645" points="307.5,449.3101,317.5,453.3101,307.5,457.3101,311.5,453.3101" style="stroke:#454645;stroke-width:1.0;"/><line style="stroke:#454645;stroke-width:1.0;" x1="59.5" x2="313.5" y1="453.3101" y2="453.3101"/><text fill="#000000" font-family="sans-serif" font-size="13" lengthAdjust="spacing" textLength="109" x="101" y="448.0474">Text display line 1:</text><text fill="#000000" font-family="monospace" font-size="13" lengthAdjust="spacing" textLength="64" x="214" y="447.4063">char[20]</text><polygon fill="#454645" points="307.5,481.2422,317.5,485.2422,307.5,489.2422,311.5,485.2422" style="stroke:#454645;stroke-width:1.0;"/><line style="stroke:#454645;stroke-width:1.0;" x1="59.5" x2="313.5" y1="485.2422" y2="485.2422"/><text fill="#000000" font-family="sans-serif" font-size="13" lengthAdjust="spacing" textLength="109" x="101" y="479.9795">Text display line 2:</text><text fill="#000000" font-family="monospace" font-size="13" lengthAdjust="spacing" textLength="64" x="214" y="479.3384">char[20]</text><polygon fill="#454645" points="307.5,513.1743,317.5,517.1743,307.5,521.1743,311.5,517.1743" style="stroke:#454645;stroke-width:1.0;"/><line style="stroke:#454645;stroke-width:1.0;" x1="59.5" x2="313.5" y1="517.1743" y2="517.1743"/><text fill="#000000" font-family="sans-serif" font-size="13" lengthAdjust="spacing" textLength="109" x="101" y="511.9116">Text display line 3:</text><text fill="#000000" font-family="monospace" font-size="13" lengthAdjust="spacing" textLength="64" x="214" y="511.2705">char[20]</text><polygon fill="#454645" points="307.5,545.1064,317.5,549.1064,307.5,553.1064,311.5,549.1064" style="stroke:#454645;stroke-width:1.0;"/><line style="stroke:#454645;stroke-width:1.0;" x1="59.5" x2="313.5" y1="549.1064" y2="549.1064"/><text fill="#000000" font-family="sans-serif" font-size="13" lengthAdjust="spacing" textLength="109" x="101" y="543.8438">Text display line 4:</text><text fill="#000000" font-family="monospace" font-size="13" lengthAdjust="spacing" textLength="64" x="214" y="543.2026">char[20]</text><path d="M25,590.6064 L25,627.6064 A3.5,3.5 0 0 0 28.5,631.1064 L354.5,631.1064 A3.5,3.5 0 0 0 358,627.6064 L358,597.1064 L348,587.1064 L28.5,587.1064 A3.5,3.5 0 0 0 25,590.6064 " fill="#90EE90" style="stroke:#454645;stroke-width:1.0;"/><path d="M348,587.1064 L348,595.3564 A1.75,1.75 0 0 0 349.75,597.1064 L358,597.1064 L348,587.1064 " fill="#90EE90" style="stroke:#454645;stroke-width:1.0;"/><text fill="#454645" font-family="sans-serif" font-size="13" lengthAdjust="spacing" textLength="241" x="66.5" y="606.1348">Get information about connected modules</text><text fill="#454645" font-family="sans-serif" font-size="13" lengthAdjust="spacing" textLength="163" x="66.5" y="623.4258">and communicate with them</text><path d="M23.5,643.6885 L93,643.6885 L93,652.9795 L83,662.9795 L20,662.9795 L20,647.1885 A3.5,3.5 0 0 1 23.5,643.6885 " fill="#EEEEEE" style="stroke:#454645;stroke-width:1.5;"/><rect fill="none" height="362.1353" rx="3.5" ry="3.5" style="stroke:#454645;stroke-width:1.0;" width="378" x="20" y="643.6885"/><text fill="#454645" font-family="sans-serif" font-size="13" font-weight="bold" lengthAdjust="spacing" textLength="28" x="35" y="658.7168">loop</text><text fill="#454645" font-family="sans-serif" font-size="11" font-weight="bold" lengthAdjust="spacing" textLength="138" x="108" y="657.5586">[until module id will be 0]</text><polygon fill="#454645" points="70.5,682.9116,60.5,686.9116,70.5,690.9116,66.5,686.9116" style="stroke:#454645;stroke-width:1.0;"/><line style="stroke:#454645;stroke-width:1.0;stroke-dasharray:2.0,2.0;" x1="64.5" x2="318.5" y1="686.9116" y2="686.9116"/><text fill="#000000" font-family="sans-serif" font-size="13" lengthAdjust="spacing" textLength="60" x="129.5" y="681.6489">Module id:</text><text fill="#000000" font-family="monospace" font-size="13" lengthAdjust="spacing" textLength="56" x="193.5" y="681.0078">uint8_t</text><path d="M33.5,701.9116 L91,701.9116 L91,711.2026 L81,721.2026 L30,721.2026 L30,705.4116 A3.5,3.5 0 0 1 33.5,701.9116 " fill="#EEEEEE" style="stroke:#454645;stroke-width:1.5;"/><rect fill="none" height="296.9121" rx="3.5" ry="3.5" style="stroke:#454645;stroke-width:1.0;" width="358" x="30" y="701.9116"/><text fill="#454645" font-family="sans-serif" font-size="13" font-weight="bold" lengthAdjust="spacing" textLength="16" x="45" y="716.9399">alt</text><text fill="#454645" font-family="sans-serif" font-size="11" font-weight="bold" lengthAdjust="spacing" textLength="92" x="106" y="715.7817">[8 bit i/o module]</text><polygon fill="#454645" points="307.5,766.1348,317.5,770.1348,307.5,774.1348,311.5,770.1348" style="stroke:#454645;stroke-width:1.0;"/><line style="stroke:#454645;stroke-width:1.0;" x1="59.5" x2="313.5" y1="770.1348" y2="770.1348"/><text fill="#000000" font-family="sans-serif" font-size="13" lengthAdjust="spacing" textLength="110" x="104.5" y="764.8721">Buttons led status:</text><text fill="#000000" font-family="monospace" font-size="13" lengthAdjust="spacing" textLength="56" x="218.5" y="764.231">uint8_t</text><polygon fill="#454645" points="70.5,823.0669,60.5,827.0669,70.5,831.0669,66.5,827.0669" style="stroke:#454645;stroke-width:1.0;"/><line style="stroke:#454645;stroke-width:1.0;" x1="64.5" x2="318.5" y1="827.0669" y2="827.0669"/><text fill="#000000" font-family="sans-serif" font-size="13" lengthAdjust="spacing" textLength="89" x="115" y="821.8042">Buttons status:</text><text fill="#000000" font-family="monospace" font-size="13" lengthAdjust="spacing" textLength="56" x="208" y="821.1631">uint8_t</text><line style="stroke:#454645;stroke-width:1.0;stroke-dasharray:2.0,2.0;" x1="30" x2="388" y1="836.0669" y2="836.0669"/><text fill="#454645" font-family="sans-serif" font-size="11" font-weight="bold" lengthAdjust="spacing" textLength="98" x="35" y="847.937">[16 bit i/o module]</text><polygon fill="#454645" points="307.5,896.6299,317.5,900.6299,307.5,904.6299,311.5,900.6299" style="stroke:#454645;stroke-width:1.0;"/><line style="stroke:#454645;stroke-width:1.0;" x1="59.5" x2="313.5" y1="900.6299" y2="900.6299"/><text fill="#000000" font-family="sans-serif" font-size="13" lengthAdjust="spacing" textLength="110" x="100.5" y="895.3672">Buttons led status:</text><text fill="#000000" font-family="monospace" font-size="13" lengthAdjust="spacing" textLength="64" x="214.5" y="894.7261">uint16_t</text><polygon fill="#454645" points="70.5,953.562,60.5,957.562,70.5,961.562,66.5,957.562" style="stroke:#454645;stroke-width:1.0;"/><line style="stroke:#454645;stroke-width:1.0;" x1="64.5" x2="318.5" y1="957.562" y2="957.562"/><text fill="#000000" font-family="sans-serif" font-size="13" lengthAdjust="spacing" textLength="89" x="111" y="952.2993">Buttons status:</text><text fill="#000000" font-family="monospace" font-size="13" lengthAdjust="spacing" textLength="64" x="204" y="951.6582">uint16_t</text><line style="stroke:#454645;stroke-width:1.0;stroke-dasharray:2.0,2.0;" x1="30" x2="388" y1="966.562" y2="966.562"/><text fill="#454645" font-family="sans-serif" font-size="11" font-weight="bold" lengthAdjust="spacing" textLength="126" x="35" y="978.4321">[Tram throttle module]</text><line style="stroke:#454645;stroke-width:1.0;stroke-dasharray:2.0,2.0;" x1="30" x2="388" y1="983.1929" y2="983.1929"/><text fill="#454645" font-family="sans-serif" font-size="11" font-weight="bold" lengthAdjust="spacing" textLength="99" x="35" y="995.063">[Gearbox module]</text><polygon fill="#454645" points="70.5,1057.7559,60.5,1061.7559,70.5,1065.7559,66.5,1061.7559" style="stroke:#454645;stroke-width:1.0;"/><line style="stroke:#454645;stroke-width:1.0;stroke-dasharray:2.0,2.0;" x1="64.5" x2="323.5" y1="1061.7559" y2="1061.7559"/><text fill="#000000" font-family="sans-serif" font-size="13" lengthAdjust="spacing" textLength="74" x="119.5" y="1056.4932">End transfer:</text><text fill="#000000" font-family="monospace" font-size="13" lengthAdjust="spacing" textLength="56" x="197.5" y="1055.8521">uint8_t</text><text fill="#000000" font-family="sans-serif" font-size="13" lengthAdjust="spacing" textLength="7" x="257.5" y="1056.4932">0</text><line style="stroke:#454645;stroke-width:1.0;stroke-dasharray:2.0,2.0;" x1="10" x2="408" y1="1070.7559" y2="1070.7559"/><text fill="#454645" font-family="sans-serif" font-size="11" font-weight="bold" lengthAdjust="spacing" textLength="194" x="15" y="1082.626">[Confirm status is different from 0]</text><path d="M25,1094.8867 L25,1114.8867 A3.5,3.5 0 0 0 28.5,1118.3867 L354.5,1118.3867 A3.5,3.5 0 0 0 358,1114.8867 L358,1101.3867 L348,1091.3867 L28.5,1091.3867 A3.5,3.5 0 0 0 25,1094.8867 " fill="#90EE90" style="stroke:#454645;stroke-width:1.0;"/><path d="M348,1091.3867 L348,1099.6367 A1.75,1.75 0 0 0 349.75,1101.3867 L358,1101.3867 L348,1091.3867 " fill="#90EE90" style="stroke:#454645;stroke-width:1.0;"/><text fill="#454645" font-family="sans-serif" font-size="13" lengthAdjust="spacing" textLength="147" x="113.5" y="1110.415">Try again to Start transfer</text><!--SRC=[jLNHRjem57ttLzpnqlOXAh1HeQgQr4rJ7oRsCjveDJd91QmwTcRVj23nyRk6X2OXC5MeUOWIsUVu-FZSwujFjCGCuKN5JXeIvI_PjRWeltCjbH72FokJIoSpyFYtG9FW1BsN2xpNQc4WGKFeXBZFSuY-maGbpYRMaBDQeuDR-4tI4H2lukVeRg7NAvIXyH_gzM0u6WcnsMo4J4YzIC8sVajx5qKTlD-jcIl7gaxmzuMGcbfJ-Ks51-N3CF1ZB2yicT_xG9jbXL6996KDl2fQGYmzGcRJGYCycijdNCTMkXIaII5LddrQN-sOZglzMO7YWiWQNwgev0vkWjujHx1Z-w6jpS7WAoHBjZzXbq6P55SmwqC4uoUuj0uqdyNLTdgrVkSX_3gaQJZrJeOQTZPwAk5eqZSNEZb-i67D3Vd4vjYHYOOHH_cckABg140hWp08N85-DknNkju17vu7_tmU_4iBtdIXdj8793x4kNNPBgOojWK1qnjaMzCohFxHX8Wc-qJZBi-Xl6iHAmmfNULRfJn7QuYHgwCUYkvOJofKCqrxPAY-CSIAvLxRSetzODZQVtFthQmNpTjgrampk6sok-W4MHVH7esQotrmyq6gQvL-fkoIgQbx6XerBPqbqbNJQarvGEbYkpeSvFhTrx6eYpj-_g6YZxRU04tnQ6lVYgcrvh8ffshEP7ohmDpPh4pX2Ph35ZvrQv0BlhpuEcjTFu8tzmy0]--></g></svg>